<?xml version="1.0" encoding="iso-8859-1"?>
<!-- Generator: Adobe Illustrator 19.0.0, SVG Export Plug-In . SVG Version: 6.00 Build 0)  -->
<svg xmlns="http://www.w3.org/2000/svg" xmlns:xlink="http://www.w3.org/1999/xlink" version="1.1" id="Layer_1" x="0px" y="0px" viewBox="0 0 512 512" style="enable-background:new 0 0 512 512;" xml:space="preserve" width="512px" height="512px">
<g>
	<g>
		<g>
			<path d="M192,0C109.656,0,42.667,67,42.667,149.333c0,23.521,19.135,42.667,42.667,42.667S128,172.854,128,149.333     c0-23.521-19.135-42.667-42.667-42.667c-5.262,0-10.247,1.083-14.905,2.833C87.221,58.379,135.331,21.333,192,21.333     c70.583,0,128,71.771,128,160c0,170.563-119.625,309.333-266.667,309.333c-5.896,0-10.667,4.771-10.667,10.667     c0,5.896,4.771,10.667,10.667,10.667c158.802,0,288-148.333,288-330.667C341.333,81.354,274.344,0,192,0z M85.333,128     c11.76,0,21.333,9.563,21.333,21.333c0,11.771-9.573,21.333-21.333,21.333c-11.76,0-21.333-9.563-21.333-21.333     C64,137.563,73.573,128,85.333,128z" fill="#bc994e"/>
			<path d="M426.667,213.333c23.531,0,42.667-19.146,42.667-42.667c0-23.521-19.135-42.667-42.667-42.667S384,147.146,384,170.667     C384,194.188,403.135,213.333,426.667,213.333z M426.667,149.333c11.76,0,21.333,9.563,21.333,21.333     c0,11.771-9.573,21.333-21.333,21.333s-21.333-9.563-21.333-21.333C405.333,158.896,414.906,149.333,426.667,149.333z" fill="#bc994e"/>
			<path d="M426.667,298.667c-23.531,0-42.667,19.146-42.667,42.667C384,364.854,403.135,384,426.667,384     s42.667-19.146,42.667-42.667C469.333,317.813,450.198,298.667,426.667,298.667z M426.667,362.667     c-11.76,0-21.333-9.563-21.333-21.333c0-11.771,9.573-21.333,21.333-21.333S448,329.563,448,341.333     C448,353.104,438.427,362.667,426.667,362.667z" fill="#bc994e"/>
		</g>
	</g>
</g>
<g>
</g>
<g>
</g>
<g>
</g>
<g>
</g>
<g>
</g>
<g>
</g>
<g>
</g>
<g>
</g>
<g>
</g>
<g>
</g>
<g>
</g>
<g>
</g>
<g>
</g>
<g>
</g>
<g>
</g>
</svg>
