<?xml version="1.0" standalone="no"?>
<!DOCTYPE svg PUBLIC "-//W3C//DTD SVG 20010904//EN"
 "http://www.w3.org/TR/2001/REC-SVG-20010904/DTD/svg10.dtd">
<svg version="1.0" xmlns="http://www.w3.org/2000/svg"
 width="540.000000pt" height="540.000000pt" viewBox="0 0 540.000000 540.000000"
 preserveAspectRatio="xMidYMid meet">
<metadata>
Created by potrace 1.11, written by Peter Selinger 2001-2013
</metadata>
<g transform="translate(0.000000,540.000000) scale(0.100000,-0.100000)"
fill="#000000" stroke="none">
<path d="M3176 4039 c-98 -28 -180 -162 -203 -333 -14 -98 -4 -370 14 -399 3
-5 7 -23 10 -40 6 -39 8 -48 15 -67 3 -8 16 -44 29 -80 12 -36 35 -90 50 -120
l27 -55 -50 -75 c-28 -41 -55 -76 -59 -78 -5 -2 -9 -10 -9 -17 0 -7 -3 -15 -8
-17 -4 -1 -31 -33 -59 -69 -79 -99 -77 -99 -121 -52 -182 192 -509 142 -699
-105 -95 -124 -140 -327 -108 -483 14 -65 16 -61 -55 -99 -95 -50 -171 -103
-204 -142 -104 -121 -53 -357 95 -437 56 -30 136 -24 189 14 55 39 103 106
104 144 1 17 5 31 9 31 5 0 5 4 2 10 -3 5 -8 19 -10 30 -7 36 -44 77 -84 94
-70 27 -149 7 -194 -51 -26 -32 -35 -29 -31 13 3 39 22 73 65 115 26 26 115
94 146 112 7 5 22 -14 42 -52 36 -71 54 -104 61 -111 3 -3 18 -23 34 -45 111
-151 294 -273 474 -316 121 -29 282 -23 396 16 300 103 483 382 488 746 2 97
-5 202 -17 259 -3 14 -8 39 -10 55 -3 17 -8 37 -10 45 -2 8 -6 26 -9 40 -6 33
-64 216 -83 260 -8 19 -19 44 -23 55 -18 45 -43 103 -64 146 l-23 46 53 109
c112 228 186 467 187 600 1 70 -3 87 -26 127 -15 25 -46 60 -69 78 -24 19 -45
36 -48 39 -3 3 -28 18 -57 33 -56 30 -111 39 -157 26z m221 -197 c10 -53 7
-113 -12 -222 -9 -52 -18 -104 -19 -116 -1 -11 -5 -24 -8 -30 -3 -5 -9 -25
-13 -44 -4 -19 -12 -41 -17 -47 -6 -7 -7 -13 -3 -13 4 0 2 -7 -5 -15 -7 -8 -9
-15 -5 -15 4 0 2 -6 -4 -13 -6 -8 -9 -16 -7 -18 2 -2 -13 -40 -34 -84 l-37
-80 -22 50 c-48 107 -66 194 -65 315 0 120 8 158 50 247 45 91 130 155 176
131 9 -4 20 -25 25 -46z m-209 -1147 c37 -161 54 -295 57 -445 1 -93 -2 -130
-19 -260 -29 -208 -146 -422 -276 -505 -205 -130 -490 -14 -646 261 -39 70
-85 178 -87 206 -1 10 -5 18 -9 18 -4 0 -5 7 -2 15 4 8 12 15 20 15 8 0 14 5
14 10 0 6 5 10 11 10 6 0 30 14 54 30 44 30 65 37 65 22 0 -5 19 -28 43 -53
128 -137 343 -142 473 -13 70 71 93 131 88 239 -4 112 -6 121 -57 235 -16 35
-16 35 21 74 77 82 94 101 152 176 61 79 64 81 71 67 4 -6 16 -52 27 -102z
m-526 -51 c37 -19 67 -47 97 -91 l22 -33 -62 -59 -63 -59 -45 23 c-49 26 -116
27 -161 3 -94 -49 -129 -107 -127 -206 l2 -63 -55 -32 c-30 -17 -58 -35 -62
-41 -5 -7 -11 -7 -20 2 -14 14 -17 173 -5 230 21 97 79 200 146 260 31 28 114
72 156 83 43 12 140 2 177 -17z m155 -273 c24 -119 -4 -266 -63 -330 -99 -111
-241 -89 -327 51 l-16 26 87 63 c48 34 89 66 90 70 2 5 9 9 16 9 8 0 13 -25
15 -75 2 -66 0 -75 -15 -75 -10 0 -31 12 -46 27 -15 15 -28 23 -29 17 -4 -51
-4 -66 3 -70 5 -3 6 -9 3 -13 -8 -15 60 -44 87 -38 78 20 119 145 87 261 -10
37 -10 39 26 69 21 17 43 36 49 43 18 21 23 16 33 -35z m-235 6 c10 -16 10
-37 0 -37 -4 0 -25 -16 -47 -35 -22 -19 -45 -35 -52 -35 -6 0 -13 -4 -15 -8
-1 -4 -18 -18 -35 -31 l-33 -22 0 26 c0 50 63 140 110 158 20 8 63 -2 72 -16z"/>
<path d="M920 3980 c0 -3 -15 -5 -33 -6 -40 -1 -87 -11 -124 -25 -65 -24 -163
-73 -163 -80 0 -5 -5 -9 -11 -9 -35 0 -231 -191 -293 -285 -22 -33 -42 -62
-45 -65 -16 -13 -103 -196 -134 -280 -38 -102 -75 -236 -83 -303 -3 -23 -7
-48 -10 -56 -17 -51 -24 -391 -11 -501 39 -316 150 -565 331 -745 99 -98 150
-136 251 -188 46 -23 219 -87 230 -86 3 1 33 -2 68 -6 186 -23 338 4 482 84
169 94 253 232 243 395 -9 139 -90 234 -205 241 -126 8 -204 -89 -142 -176 27
-38 75 -64 86 -46 15 24 11 37 -18 61 -36 30 -37 48 -3 66 36 20 105 16 151
-7 51 -26 65 -68 47 -136 -12 -45 -71 -157 -84 -157 -3 0 -17 -10 -31 -22 -36
-33 -62 -46 -105 -54 -22 -3 -43 -10 -49 -14 -19 -13 -229 -3 -294 14 -68 18
-154 55 -159 68 -2 4 -8 8 -13 8 -31 0 -157 135 -207 223 -71 124 -129 306
-148 468 -3 30 -8 57 -11 61 -2 5 -6 99 -8 210 -6 314 26 484 137 717 66 138
115 211 207 301 79 78 159 126 221 133 122 12 277 -69 331 -175 26 -50 24 -58
-6 -26 -43 47 -126 57 -183 22 -65 -38 -95 -142 -58 -199 31 -47 64 -60 146
-59 107 1 177 39 212 114 17 36 19 134 4 175 -48 130 -149 243 -267 299 -42
20 -96 38 -120 41 -69 8 -129 10 -129 5z"/>
<path d="M4438 3975 c-2 -2 -23 -5 -48 -8 -25 -3 -52 -8 -60 -10 -8 -2 -28 -7
-45 -12 -132 -35 -291 -161 -393 -312 -67 -98 -154 -275 -143 -291 1 -1 -6
-16 -15 -33 -8 -17 -17 -38 -19 -47 -2 -10 -15 -60 -28 -112 -14 -52 -28 -113
-31 -135 -4 -22 -9 -52 -11 -66 -26 -150 -37 -417 -21 -544 24 -197 94 -428
169 -565 10 -19 29 -53 40 -75 12 -22 50 -76 84 -121 233 -305 532 -387 840
-231 57 30 174 115 213 157 43 46 94 106 112 131 56 76 78 110 78 115 0 4 10
23 22 43 13 20 23 38 23 41 1 3 10 23 22 45 11 22 21 42 21 45 0 3 6 19 13 35
7 17 13 32 14 35 0 3 11 34 23 70 26 80 62 229 68 290 12 120 14 162 14 255 1
94 -6 218 -15 274 -3 13 -7 43 -10 65 -12 83 -30 158 -63 261 -9 28 -17 52
-17 55 0 3 -6 15 -13 28 -7 12 -10 22 -8 22 10 0 -84 177 -126 237 -44 62
-111 138 -165 183 -40 34 -91 70 -99 70 -4 0 -15 6 -23 13 -20 17 -135 63
-176 71 -17 2 -43 8 -60 11 -30 6 -163 14 -167 10z m392 -748 c36 -6 110 -37
145 -61 98 -66 147 -177 140 -320 -10 -219 -146 -430 -375 -582 -82 -55 -244
-129 -335 -154 -178 -50 -353 -47 -456 6 -165 87 -180 288 -43 557 106 209
277 383 469 480 57 28 173 66 225 74 19 3 36 6 38 8 4 3 163 -3 192 -8z"/>
<path d="M1563 3284 c-53 -26 -71 -98 -38 -148 54 -81 186 -46 190 50 4 84
-76 135 -152 98z"/>
<path d="M1547 2530 c-26 -20 -43 -68 -38 -105 4 -33 55 -77 92 -80 104 -8
156 113 78 179 -38 32 -95 35 -132 6z"/>
</g>
</svg>
